<?xml version="1.0" encoding="UTF-8"?>
<!DOCTYPE svg PUBLIC "-//W3C//DTD SVG 1.1//EN" "http://www.w3.org/Graphics/SVG/1.1/DTD/svg11.dtd">
<svg xmlns="http://www.w3.org/2000/svg" version="1.1" width="96px" height="96px" style="shape-rendering:geometricPrecision; text-rendering:geometricPrecision; image-rendering:optimizeQuality; fill-rule:evenodd; clip-rule:evenodd" xmlns:xlink="http://www.w3.org/1999/xlink">
<g><path style="opacity:0.941" fill="#fefffe" d="M 47.5,6.5 C 51.1057,6.93895 53.2723,8.93895 54,12.5C 54.4998,22.828 54.6665,33.1613 54.5,43.5C 64.8387,43.3335 75.172,43.5002 85.5,44C 89.457,46.9438 89.457,49.9438 85.5,53C 75.172,53.4998 64.8387,53.6665 54.5,53.5C 54.9061,64.5637 54.4061,75.5637 53,86.5C 50,89.1667 47,89.1667 44,86.5C 43.5002,75.505 43.3335,64.505 43.5,53.5C 32.1618,53.6665 20.8284,53.4999 9.5,53C 5.543,49.9438 5.543,46.9438 9.5,44C 20.8284,43.5001 32.1618,43.3335 43.5,43.5C 43.3335,32.1618 43.5001,20.8284 44,9.5C 45.1451,8.36362 46.3117,7.36362 47.5,6.5 Z"/></g>
</svg>
