<?xml version="1.0" encoding="UTF-8"?>
<!DOCTYPE svg PUBLIC "-//W3C//DTD SVG 1.1//EN" "http://www.w3.org/Graphics/SVG/1.1/DTD/svg11.dtd">
<svg xmlns="http://www.w3.org/2000/svg" version="1.1" width="96px" height="96px" style="shape-rendering:geometricPrecision; text-rendering:geometricPrecision; image-rendering:optimizeQuality; fill-rule:evenodd; clip-rule:evenodd" xmlns:xlink="http://www.w3.org/1999/xlink">
<g><path style="opacity:0.892" fill="#fefffe" d="M 53.5,6.5 C 55.8211,6.65833 57.6545,7.65833 59,9.5C 59.6667,12.5 59.6667,15.5 59,18.5C 54.6667,40.1667 50.3333,61.8333 46,83.5C 43.4512,87.9255 40.1179,88.5921 36,85.5C 35.3333,82.5 35.3333,79.5 36,76.5C 40.3333,54.8333 44.6667,33.1667 49,11.5C 50.025,9.31305 51.525,7.64638 53.5,6.5 Z"/></g>
<g><path style="opacity:0.884" fill="#fefffe" d="M -0.5,50.5 C -0.5,48.5 -0.5,46.5 -0.5,44.5C 5.29805,39.2029 10.9647,33.7029 16.5,28C 23.7434,26.9019 26.2434,29.7352 24,36.5C 20.3176,40.0152 16.8176,43.6819 13.5,47.5C 16.8176,51.3181 20.3176,54.9848 24,58.5C 26.0051,65.4902 23.5051,68.3236 16.5,67C 10.9647,61.2971 5.29805,55.7971 -0.5,50.5 Z"/></g>
<g><path style="opacity:0.882" fill="#fefffe" d="M 95.5,44.5 C 95.5,46.5 95.5,48.5 95.5,50.5C 89.7019,55.7971 84.0353,61.2971 78.5,67C 71.4949,68.3236 68.9949,65.4902 71,58.5C 74.6824,54.9848 78.1824,51.3181 81.5,47.5C 78.1824,43.6819 74.6824,40.0152 71,36.5C 68.8041,29.6907 71.3041,26.8574 78.5,28C 84.0353,33.7029 89.7019,39.2029 95.5,44.5 Z"/></g>
</svg>
