<?xml version="1.0" encoding="UTF-8"?>
<!DOCTYPE svg PUBLIC "-//W3C//DTD SVG 1.1//EN" "http://www.w3.org/Graphics/SVG/1.1/DTD/svg11.dtd">
<svg xmlns="http://www.w3.org/2000/svg" version="1.1" width="96px" height="96px" style="shape-rendering:geometricPrecision; text-rendering:geometricPrecision; image-rendering:optimizeQuality; fill-rule:evenodd; clip-rule:evenodd" xmlns:xlink="http://www.w3.org/1999/xlink">
<g><path style="opacity:0.873" fill="#fefffe" d="M 38.5,7.5 C 59.8152,4.5723 75.3152,12.5723 85,31.5C 86.4976,35.7289 85.3309,38.7289 81.5,40.5C 80.5,40 79.5,39.5 78.5,39C 70.3892,20.2779 56.3892,13.2779 36.5,18C 29.7482,20.8679 24.4149,25.3679 20.5,31.5C 23.6651,31.5513 26.9984,31.718 30.5,32C 31.8333,34.3333 31.8333,36.6667 30.5,39C 24.5959,41.1346 18.5959,42.9679 12.5,44.5C 11.5,44 10.5,43.5 9.5,43C 5.61902,36.0192 3.78568,28.5192 4,20.5C 9.02963,17.8531 12.0296,19.5197 13,25.5C 19.4876,16.4918 27.9876,10.4918 38.5,7.5 Z"/></g>
<g><path style="opacity:0.872" fill="#fefffe" d="M 78.5,51.5 C 81.6852,51.0196 84.5185,51.6863 87,53.5C 88.8434,59.6938 90.6767,65.8605 92.5,72C 87.6351,78.412 84.1351,77.5786 82,69.5C 67.4383,88.0153 49.2716,92.5153 27.5,83C 19.5585,78.3919 13.7252,71.8919 10,63.5C 8.50245,59.2711 9.66912,56.2711 13.5,54.5C 14.7481,55.0402 15.9148,55.7069 17,56.5C 27.0289,77.9265 42.8623,83.7599 64.5,74C 68.6905,71.3097 72.0238,67.8097 74.5,63.5C 72.2362,62.9622 69.9028,63.2956 67.5,64.5C 63.7455,63.0968 62.5789,60.4302 64,56.5C 68.8509,54.5876 73.6842,52.9209 78.5,51.5 Z"/></g>
</svg>
