<?xml version="1.0" encoding="UTF-8"?>
<!DOCTYPE svg PUBLIC "-//W3C//DTD SVG 1.1//EN" "http://www.w3.org/Graphics/SVG/1.1/DTD/svg11.dtd">
<svg xmlns="http://www.w3.org/2000/svg" version="1.1" width="96px" height="96px" style="shape-rendering:geometricPrecision; text-rendering:geometricPrecision; image-rendering:optimizeQuality; fill-rule:evenodd; clip-rule:evenodd" xmlns:xlink="http://www.w3.org/1999/xlink">
<g><path style="opacity:0.914" fill="#fefffe" d="M 46.5,3.5 C 59.7366,8.78496 72.4033,15.1183 84.5,22.5C 78.7455,25.7104 72.7455,28.3771 66.5,30.5C 60.067,28.1182 53.7337,25.4515 47.5,22.5C 41.2663,25.4515 34.933,28.1182 28.5,30.5C 22.2545,28.3771 16.2545,25.7104 10.5,22.5C 22.2421,15.6295 34.2421,9.29617 46.5,3.5 Z"/></g>
<g><path style="opacity:0.95" fill="#fefffe" d="M 7.5,29.5 C 13.5379,31.352 19.2046,34.0187 24.5,37.5C 23.1115,45.1835 23.2782,52.8502 25,60.5C 30.4262,64.4656 36.2595,67.7989 42.5,70.5C 43.8333,76.8333 43.8333,83.1667 42.5,89.5C 31.2554,83.9611 20.0888,78.2945 9,72.5C 7.53423,58.2641 7.03423,43.9308 7.5,29.5 Z"/></g>
<g><path style="opacity:0.782" fill="#fefffe" d="M 46.5,29.5 C 50.4234,30.7951 54.0901,32.6284 57.5,35C 53.797,37.5331 49.797,38.8665 45.5,39C 42.8333,37.6667 40.1667,36.3333 37.5,35C 40.5638,33.1412 43.5638,31.3079 46.5,29.5 Z"/></g>
<g><path style="opacity:0.952" fill="#fefffe" d="M 85.5,29.5 C 86.8303,35.9658 87.497,42.7991 87.5,50C 87.6341,57.5998 87.1341,65.0998 86,72.5C 74.9112,78.2945 63.7446,83.9611 52.5,89.5C 51.1667,83.1667 51.1667,76.8333 52.5,70.5C 58.7405,67.7989 64.5738,64.4656 70,60.5C 71.7218,52.8502 71.8885,45.1835 70.5,37.5C 75.4345,34.5352 80.4345,31.8685 85.5,29.5 Z"/></g>
<g><path style="opacity:0.932" fill="#fefffe" d="M 31.5,40.5 C 35.6189,41.4753 39.4522,43.142 43,45.5C 43.6667,51.5 43.6667,57.5 43,63.5C 39.3333,61.5 35.6667,59.5 32,57.5C 31.5006,51.8431 31.3339,46.1764 31.5,40.5 Z"/></g>
<g><path style="opacity:0.935" fill="#fefffe" d="M 61.5,40.5 C 62.8142,42.9151 63.4809,45.7485 63.5,49C 63.3333,51.8333 63.1667,54.6667 63,57.5C 59.3333,59.5 55.6667,61.5 52,63.5C 51.3333,57.5 51.3333,51.5 52,45.5C 55.2093,43.7232 58.376,42.0565 61.5,40.5 Z"/></g>
</svg>
