<?xml version="1.0" encoding="UTF-8"?>
<!DOCTYPE svg PUBLIC "-//W3C//DTD SVG 1.1//EN" "http://www.w3.org/Graphics/SVG/1.1/DTD/svg11.dtd">
<svg xmlns="http://www.w3.org/2000/svg" version="1.1" width="96px" height="96px" style="shape-rendering:geometricPrecision; text-rendering:geometricPrecision; image-rendering:optimizeQuality; fill-rule:evenodd; clip-rule:evenodd" xmlns:xlink="http://www.w3.org/1999/xlink">
<g><path style="opacity:0.908" fill="#fefffe" d="M 23.5,3.5 C 26.1873,3.33591 28.854,3.50258 31.5,4C 32.1667,5.33333 32.8333,6.66667 33.5,8C 36.4456,8.80614 39.1123,10.1395 41.5,12C 43.5,12.3333 45.5,12.6667 47.5,13C 48.627,14.7533 49.627,16.5866 50.5,18.5C 46.5,24.5 46.5,30.5 50.5,36.5C 49.6667,38.1667 48.8333,39.8333 48,41.5C 42.8069,42.345 37.9735,44.1783 33.5,47C 32.8333,48.3333 32.1667,49.6667 31.5,51C 28.8333,51.6667 26.1667,51.6667 23.5,51C 22.8333,49.6667 22.1667,48.3333 21.5,47C 18.5544,46.1939 15.8877,44.8605 13.5,43C 11.5,42.6667 9.5,42.3333 7.5,42C 6.37298,40.2467 5.37298,38.4134 4.5,36.5C 8.5,30.5 8.5,24.5 4.5,18.5C 5.33333,16.8333 6.16667,15.1667 7,13.5C 12.1931,12.655 17.0265,10.8217 21.5,8C 22.2666,6.52951 22.9332,5.02951 23.5,3.5 Z M 23.5,18.5 C 33.6591,17.1581 37.8257,21.4914 36,31.5C 33.1034,36.1549 28.9367,37.6549 23.5,36C 18.8451,33.1034 17.3451,28.9367 19,23.5C 20.025,21.313 21.525,19.6464 23.5,18.5 Z"/></g>
<g><path style="opacity:0.898" fill="#fefffe" d="M 62.5,35.5 C 65.8499,35.335 69.1832,35.5017 72.5,36C 73.1667,37.3333 73.8333,38.6667 74.5,40C 78.7217,41.0262 82.2217,43.1929 85,46.5C 86.7261,45.4238 88.5594,45.2571 90.5,46C 92.0492,48.0983 93.0492,50.4316 93.5,53C 90.8333,60 90.8333,67 93.5,74C 93.0905,76.3207 92.2572,78.4874 91,80.5C 89,81.8333 87,81.8333 85,80.5C 82.2217,83.8071 78.7217,85.9738 74.5,87C 73.8333,88.3333 73.1667,89.6667 72.5,91C 69.1667,91.6667 65.8333,91.6667 62.5,91C 61.8333,89.6667 61.1667,88.3333 60.5,87C 56.2783,85.9738 52.7783,83.8071 50,80.5C 48.2739,81.5762 46.4406,81.7429 44.5,81C 42.9508,78.9017 41.9508,76.5684 41.5,74C 44.1667,67 44.1667,60 41.5,53C 41.9095,50.6793 42.7428,48.5126 44,46.5C 46,45.1667 48,45.1667 50,46.5C 52.7783,43.1929 56.2783,41.0262 60.5,40C 61.2666,38.5295 61.9332,37.0295 62.5,35.5 Z M 62.5,50.5 C 75.6505,49.483 81.4839,55.483 80,68.5C 76.2685,75.78 70.4352,78.28 62.5,76C 55.22,72.2685 52.72,66.4352 55,58.5C 57.0282,55.3078 59.5282,52.6411 62.5,50.5 Z"/></g>
</svg>
