<?xml version="1.0" encoding="UTF-8"?>
<!DOCTYPE svg PUBLIC "-//W3C//DTD SVG 1.1//EN" "http://www.w3.org/Graphics/SVG/1.1/DTD/svg11.dtd">
<svg xmlns="http://www.w3.org/2000/svg" version="1.1" width="96px" height="96px" style="shape-rendering:geometricPrecision; text-rendering:geometricPrecision; image-rendering:optimizeQuality; fill-rule:evenodd; clip-rule:evenodd" xmlns:xlink="http://www.w3.org/1999/xlink">
<g><path style="opacity:0.948" fill="#fefffe" d="M 38.5,7.5 C 61.3294,4.54685 77.1628,13.5469 86,34.5C 91.7177,58.8973 83.2177,76.064 60.5,86C 36.1027,91.7177 18.936,83.2177 9,60.5C 3.42409,33.977 13.2574,16.3104 38.5,7.5 Z M 40.5,16.5 C 41.5,16.5 42.5,16.5 43.5,16.5C 43.8076,18.924 43.4742,21.2573 42.5,23.5C 40.0038,24.5804 37.6705,25.9138 35.5,27.5C 38.5789,30.5707 41.2456,33.9041 43.5,37.5C 41.772,39.8774 39.4386,41.544 36.5,42.5C 34.6261,48.1201 32.9595,53.7868 31.5,59.5C 30.1667,59.5 28.8333,59.5 27.5,59.5C 26.5,55.5 25.5,51.5 24.5,47.5C 21.8333,47.5 19.1667,47.5 16.5,47.5C 17.5606,31.6802 25.5606,21.3468 40.5,16.5 Z M 51.5,47.5 C 63.5512,45.8542 68.7178,51.1876 67,63.5C 66.1667,64.3333 65.3333,65.1667 64.5,66C 62.2558,64.8433 59.7558,64.0099 57,63.5C 53.8203,63.9212 50.8203,64.9212 48,66.5C 46.395,65.8993 45.0616,64.8993 44,63.5C 43.3333,60.8333 43.3333,58.1667 44,55.5C 46.705,52.9638 49.205,50.2971 51.5,47.5 Z"/></g>
</svg>
