<?xml version="1.0" encoding="UTF-8"?>
<!DOCTYPE svg PUBLIC "-//W3C//DTD SVG 1.1//EN" "http://www.w3.org/Graphics/SVG/1.1/DTD/svg11.dtd">
<svg xmlns="http://www.w3.org/2000/svg" version="1.1" width="96px" height="96px" style="shape-rendering:geometricPrecision; text-rendering:geometricPrecision; image-rendering:optimizeQuality; fill-rule:evenodd; clip-rule:evenodd" xmlns:xlink="http://www.w3.org/1999/xlink">
<g><path style="opacity:0.948" fill="#fefffe" d="M 38.5,7.5 C 61.3294,4.54685 77.1628,13.5469 86,34.5C 91.7177,58.8973 83.2177,76.064 60.5,86C 36.1027,91.7177 18.936,83.2177 9,60.5C 3.42409,33.977 13.2574,16.3104 38.5,7.5 Z M 42.5,24.5 C 59.7649,24.2567 65.5982,32.2567 60,48.5C 55.622,51.7464 51.4553,55.0797 47.5,58.5C 43.149,56.2522 42.4823,53.0856 45.5,49C 54.9791,47.5447 57.8124,42.3781 54,33.5C 50.7441,31.5715 47.2441,31.0715 43.5,32C 41.2619,34.3559 38.9285,36.5226 36.5,38.5C 34.6031,38.2718 33.2697,37.2718 32.5,35.5C 34.4935,30.5112 37.8269,26.8445 42.5,24.5 Z M 45.5,64.5 C 50.1585,64.0146 51.4919,65.848 49.5,70C 44.7282,70.8104 43.3948,68.9771 45.5,64.5 Z"/></g>
</svg>
