<svg version="1.1" xmlns="http://www.w3.org/2000/svg" xmlns:xlink="http://www.w3.org/1999/xlink" width="24px" height="24px" viewBox="0,0,256,256"><g fill="#ffffff" fill-rule="nonzero" stroke="none" stroke-width="1" stroke-linecap="butt" stroke-linejoin="miter" stroke-miterlimit="10" stroke-dasharray="" stroke-dashoffset="0" font-family="none" font-weight="none" font-size="none" text-anchor="none" style="mix-blend-mode: normal"><g transform="scale(10.66667,10.66667)"><path d="M3.17383,1c-1.74111,0 -3.17383,1.43272 -3.17383,3.17383v10.65234c0,1.74111 1.43272,3.17383 3.17383,3.17383h1.82617c0.36064,0.0051 0.69608,-0.18438 0.87789,-0.49587c0.18181,-0.3115 0.18181,-0.69676 0,-1.00825c-0.18181,-0.3115 -0.51725,-0.50097 -0.87789,-0.49587h-1.82617c-0.66089,0 -1.17383,-0.51293 -1.17383,-1.17383v-10.65234c0,-0.66089 0.51293,-1.17383 1.17383,-1.17383h17.65234c0.66089,0 1.17383,0.51293 1.17383,1.17383v4.82617c-0.0051,0.36064 0.18438,0.69608 0.49587,0.87789c0.3115,0.18181 0.69676,0.18181 1.00825,0c0.3115,-0.18181 0.50097,-0.51725 0.49587,-0.87789v-4.82617c0,-1.74111 -1.43272,-3.17383 -3.17383,-3.17383zM13.98438,4.98633c-0.55152,0.00862 -0.99193,0.46214 -0.98437,1.01367v7v3.71094l-1.54492,-1.54688c-0.84,-0.763 -2.0667,-0.90226 -2.8457,-0.32226c-0.6,0.445 -0.78217,1.21311 -0.45117,1.91211l3.82031,6.18555l0.14258,0.18164c0.566,0.566 1.32009,0.87891 2.12109,0.87891h6.75781c1.654,0 3,-1.345 3,-3v-6.80664v-1.19336c0.0037,-0.2703 -0.10218,-0.53059 -0.29351,-0.72155c-0.19133,-0.19097 -0.45182,-0.29634 -0.72212,-0.29212c-0.55152,0.00862 -0.99193,0.46214 -0.98437,1.01367v0.16602l-1,-0.16602v-1c0.0037,-0.2703 -0.10218,-0.53059 -0.29351,-0.72155c-0.19133,-0.19097 -0.45182,-0.29634 -0.72212,-0.29212c-0.55152,0.00862 -0.99193,0.46214 -0.98437,1.01367v0.66602l-1,-0.16602v-1.5c0.0037,-0.2703 -0.10218,-0.53059 -0.29351,-0.72155c-0.19133,-0.19097 -0.45182,-0.29634 -0.72212,-0.29212c-0.55152,0.00862 -0.99193,0.46214 -0.98437,1.01367v1.16602l-0.91992,-0.15234h-0.08008v-6.01367c0.0037,-0.2703 -0.10218,-0.53059 -0.29351,-0.72155c-0.19133,-0.19097 -0.45182,-0.29634 -0.72212,-0.29212z"/></g></g></svg>