<?xml version="1.0" encoding="UTF-8"?>
<!DOCTYPE svg PUBLIC "-//W3C//DTD SVG 1.1//EN" "http://www.w3.org/Graphics/SVG/1.1/DTD/svg11.dtd">
<svg xmlns="http://www.w3.org/2000/svg" version="1.1" width="96px" height="96px" style="shape-rendering:geometricPrecision; text-rendering:geometricPrecision; image-rendering:optimizeQuality; fill-rule:evenodd; clip-rule:evenodd" xmlns:xlink="http://www.w3.org/1999/xlink">
<g><path style="opacity:0.946" fill="#fefffe" d="M 44.5,7.5 C 47.6074,7.35123 50.6074,7.85123 53.5,9C 64.619,13.726 75.619,18.726 86.5,24C 87.5914,26.0639 87.7581,28.2305 87,30.5C 74.1971,37.0443 61.0305,42.7109 47.5,47.5C 34.2897,42.5634 21.2897,37.0634 8.5,31C 7.16667,28.6667 7.16667,26.3333 8.5,24C 20.7099,18.7247 32.7099,13.2247 44.5,7.5 Z"/></g>
<g><path style="opacity:0.888" fill="#fefffe" d="M 12.5,41.5 C 22.1275,44.476 31.4609,48.3093 40.5,53C 45.1667,55 49.8333,55 54.5,53C 63.0541,48.8891 71.7208,45.0558 80.5,41.5C 86.9135,42.0554 88.9135,45.2221 86.5,51C 73.7625,57.1881 60.7625,62.6881 47.5,67.5C 34.2897,62.5634 21.2897,57.0634 8.5,51C 7.40857,48.9361 7.2419,46.7695 8,44.5C 9.65161,43.6006 11.1516,42.6006 12.5,41.5 Z"/></g>
<g><path style="opacity:0.888" fill="#fefffe" d="M 12.5,61.5 C 22.1275,64.476 31.4609,68.3093 40.5,73C 45.1667,75 49.8333,75 54.5,73C 63.0541,68.8891 71.7208,65.0558 80.5,61.5C 86.9135,62.0554 88.9135,65.2221 86.5,71C 73.7625,77.1881 60.7625,82.6881 47.5,87.5C 34.2897,82.5634 21.2897,77.0634 8.5,71C 7.40857,68.9361 7.2419,66.7695 8,64.5C 9.65161,63.6006 11.1516,62.6006 12.5,61.5 Z"/></g>
</svg>
