<?xml version="1.0" encoding="UTF-8"?>
<!DOCTYPE svg PUBLIC "-//W3C//DTD SVG 1.1//EN" "http://www.w3.org/Graphics/SVG/1.1/DTD/svg11.dtd">
<svg xmlns="http://www.w3.org/2000/svg" version="1.1" width="96px" height="96px" style="shape-rendering:geometricPrecision; text-rendering:geometricPrecision; image-rendering:optimizeQuality; fill-rule:evenodd; clip-rule:evenodd" xmlns:xlink="http://www.w3.org/1999/xlink">
<g><path style="opacity:0.974" fill="#fefffe" d="M 16.5,7.5 C 37.1694,7.33338 57.836,7.50004 78.5,8C 81.1667,10.3333 81.1667,12.6667 78.5,15C 57.8333,15.6667 37.1667,15.6667 16.5,15C 13.9824,12.5212 13.9824,10.0212 16.5,7.5 Z"/></g>
<g><path style="opacity:0.922" fill="#fefffe" d="M 44.5,23.5 C 46.5273,23.3379 48.5273,23.5045 50.5,24C 55.9253,28.7527 60.5919,34.0861 64.5,40C 63.6667,42.1667 62.1667,43.6667 60,44.5C 57.1939,43.4303 54.5272,42.097 52,40.5C 51.6667,49.1667 51.3333,57.8333 51,66.5C 48.6667,69.1667 46.3333,69.1667 44,66.5C 43.6667,57.8333 43.3333,49.1667 43,40.5C 39.6368,43.9794 35.9701,44.6461 32,42.5C 31.3333,40.5 31.3333,38.5 32,36.5C 36.3702,32.2978 40.5368,27.9645 44.5,23.5 Z"/></g>
<g><path style="opacity:0.861" fill="#fefffe" d="M 46.5,74.5 C 50.8384,74.847 52.5051,77.1803 51.5,81.5C 51.7301,87.6249 49.2301,89.2915 44,86.5C 43.3333,83.1667 43.3333,79.8333 44,76.5C 44.9947,75.9341 45.828,75.2674 46.5,74.5 Z"/></g>
</svg>
