<?xml version="1.0" encoding="UTF-8"?>
<!DOCTYPE svg PUBLIC "-//W3C//DTD SVG 1.1//EN" "http://www.w3.org/Graphics/SVG/1.1/DTD/svg11.dtd">
<svg xmlns="http://www.w3.org/2000/svg" version="1.1" width="96px" height="96px" style="shape-rendering:geometricPrecision; text-rendering:geometricPrecision; image-rendering:optimizeQuality; fill-rule:evenodd; clip-rule:evenodd" xmlns:xlink="http://www.w3.org/1999/xlink">
<g><path style="opacity:0.979" fill="#fefffe" d="M 21.5,11.5 C 26.8437,11.334 32.1771,11.5006 37.5,12C 38,12.5 38.5,13 39,13.5C 39.4983,16.8168 39.665,20.1501 39.5,23.5C 32.8333,23.5 26.1667,23.5 19.5,23.5C 18.9905,19.1869 19.6571,15.1869 21.5,11.5 Z"/></g>
<g><path style="opacity:0.979" fill="#fefffe" d="M 57.5,11.5 C 62.8437,11.334 68.1771,11.5006 73.5,12C 74,12.5 74.5,13 75,13.5C 75.4983,16.8168 75.665,20.1501 75.5,23.5C 68.8333,23.5 62.1667,23.5 55.5,23.5C 54.9905,19.1869 55.6571,15.1869 57.5,11.5 Z"/></g>
<g><path style="opacity:0.994" fill="#fefffe" d="M 11.5,31.5 C 36.2564,31.0193 60.9231,31.5193 85.5,33C 86.1258,33.7504 86.6258,34.5838 87,35.5C 87.1667,42.8333 87.3333,50.1667 87.5,57.5C 87.6365,65.5986 87.1365,73.5986 86,81.5C 85.2496,82.1258 84.4162,82.6258 83.5,83C 71.5,83.1667 59.5,83.3333 47.5,83.5C 34.7418,83.6486 22.0752,83.1486 9.5,82C 8.87424,81.2496 8.37424,80.4162 8,79.5C 7.33333,64.8333 7.33333,50.1667 8,35.5C 8.68972,33.6498 9.85639,32.3164 11.5,31.5 Z"/></g>
</svg>
