<?xml version="1.0" encoding="UTF-8"?>
<!DOCTYPE svg PUBLIC "-//W3C//DTD SVG 1.1//EN" "http://www.w3.org/Graphics/SVG/1.1/DTD/svg11.dtd">
<svg xmlns="http://www.w3.org/2000/svg" version="1.1" width="96px" height="96px" style="shape-rendering:geometricPrecision; text-rendering:geometricPrecision; image-rendering:optimizeQuality; fill-rule:evenodd; clip-rule:evenodd" xmlns:xlink="http://www.w3.org/1999/xlink">
<g><path style="opacity:0.955" fill="#fefffe" d="M 44.5,5.5 C 46.7925,5.24358 48.9592,5.57692 51,6.5C 54.8333,14.1667 58.6667,21.8333 62.5,29.5C 72.0998,31.2728 81.5998,33.2728 91,35.5C 91.6667,37.5 91.6667,39.5 91,41.5C 85,47.5 79,53.5 73,59.5C 73.9388,67.8086 75.1055,76.1419 76.5,84.5C 77.0825,88.0821 75.5825,90.0821 72,90.5C 64.0589,86.1131 55.8922,82.1131 47.5,78.5C 40.2263,81.4702 33.2263,84.9702 26.5,89C 23.9009,89.769 21.4009,89.6023 19,88.5C 19.4584,78.7572 20.4584,69.0905 22,59.5C 16,53.5 10,47.5 4,41.5C 3.33333,39.5 3.33333,37.5 4,35.5C 13.4548,33.4565 22.9548,31.4565 32.5,29.5C 36.5133,21.4734 40.5133,13.4734 44.5,5.5 Z"/></g>
</svg>
