<?xml version="1.0" encoding="utf-8"?>
<!-- Generator: Adobe Illustrator 28.0.0, SVG Export Plug-In . SVG Version: 6.00 Build 0)  -->
<svg version="1.1" id="Слой_1" xmlns="http://www.w3.org/2000/svg" xmlns:xlink="http://www.w3.org/1999/xlink" x="0px" y="0px"
	 viewBox="0 0 96 96" style="enable-background:new 0 0 96 96;" xml:space="preserve">
<style type="text/css">
	.st0{opacity:0.954;fill-rule:evenodd;clip-rule:evenodd;fill:#FEFFFE;enable-background:new    ;}
</style>
<g>
	<path class="st0" d="M56.7,87.2c-22.8,3-38.7-6-47.5-27C3.5,35.8,12,18.6,34.7,8.7C59.1,3,76.3,11.5,86.2,34.2
		C91.8,60.7,82,78.4,56.7,87.2z M53.7,62.2c-2.8,0.6-4.4-0.4-5-3c1.4-2.9,3.4-5.4,6-7.5c-7.7-0.3-15.3-0.7-23-1c-4-2.3-4-4.7,0-7
		c7.7-0.3,15.3-0.7,23-1c-1.8-1.8-3.7-3.7-5.5-5.5c-1.2-4.2,0.3-5.7,4.5-4.5c4.9,4.4,9.3,9.2,13,14.5C62.8,52.5,58.4,57.5,53.7,62.2
		z"/>
</g>
</svg>
