<?xml version="1.0" encoding="UTF-8"?>
<!DOCTYPE svg PUBLIC "-//W3C//DTD SVG 1.1//EN" "http://www.w3.org/Graphics/SVG/1.1/DTD/svg11.dtd">
<svg xmlns="http://www.w3.org/2000/svg" version="1.1" width="96px" height="96px" style="shape-rendering:geometricPrecision; text-rendering:geometricPrecision; image-rendering:optimizeQuality; fill-rule:evenodd; clip-rule:evenodd" xmlns:xlink="http://www.w3.org/1999/xlink">
<g><path style="opacity:0.93" fill="#fefffe" d="M 70.5,10.5 C 72.1703,10.7512 73.6703,11.4178 75,12.5C 75.3333,22.5 75.6667,32.5 76,42.5C 79.0877,39.9025 82.5877,39.0692 86.5,40C 87.5914,42.0639 87.7581,44.2305 87,46.5C 82.8333,50.6667 78.6667,54.8333 74.5,59C 72.5,59.6667 70.5,59.6667 68.5,59C 64.3333,54.8333 60.1667,50.6667 56,46.5C 55.3333,44.5 55.3333,42.5 56,40.5C 59.995,38.9999 63.6617,39.6665 67,42.5C 67.3333,32.5 67.6667,22.5 68,12.5C 68.9947,11.9341 69.828,11.2674 70.5,10.5 Z"/></g>
<g><path style="opacity:0.916" fill="#fefffe" d="M 12.5,15.5 C 18.5092,15.3338 24.5092,15.5005 30.5,16C 33.1667,18.3333 33.1667,20.6667 30.5,23C 24.5,23.6667 18.5,23.6667 12.5,23C 9.98238,20.5212 9.98238,18.0212 12.5,15.5 Z"/></g>
<g><path style="opacity:0.948" fill="#fefffe" d="M 12.5,35.5 C 22.5056,35.3335 32.5056,35.5002 42.5,36C 45.1667,38.3333 45.1667,40.6667 42.5,43C 32.5,43.6667 22.5,43.6667 12.5,43C 9.98238,40.5212 9.98238,38.0212 12.5,35.5 Z"/></g>
<g><path style="opacity:0.962" fill="#fefffe" d="M 12.5,55.5 C 26.504,55.3334 40.504,55.5001 54.5,56C 57.1667,58.3333 57.1667,60.6667 54.5,63C 40.5,63.6667 26.5,63.6667 12.5,63C 9.98238,60.5212 9.98238,58.0212 12.5,55.5 Z"/></g>
<g><path style="opacity:0.97" fill="#fefffe" d="M 12.5,75.5 C 30.5031,75.3334 48.5031,75.5001 66.5,76C 69.1667,78.3333 69.1667,80.6667 66.5,83C 48.5,83.6667 30.5,83.6667 12.5,83C 9.98238,80.5212 9.98238,78.0212 12.5,75.5 Z"/></g>
</svg>
