<svg xmlns="http://www.w3.org/2000/svg" xmlns:xlink="http://www.w3.org/1999/xlink" viewBox="0,0,256,256" width="120px" height="120px" fill-rule="nonzero"><g fill="#ffffff" fill-rule="nonzero" stroke="none" stroke-width="1" stroke-linecap="butt" stroke-linejoin="miter" stroke-miterlimit="10" stroke-dasharray="" stroke-dashoffset="0" font-family="none" font-weight="none" font-size="none" text-anchor="none" style="mix-blend-mode: normal"><g transform="scale(10.66667,10.66667)"><path d="M21.554,14.248l-0.708,-0.626c0.102,-0.546 0.154,-1.089 0.154,-1.622c0,-0.533 -0.052,-1.076 -0.154,-1.622l0.708,-0.626c0.709,-0.627 0.88,-1.678 0.407,-2.499l-0.871,-1.507c-0.474,-0.821 -1.471,-1.199 -2.367,-0.896l-0.894,0.299c-0.83,-0.705 -1.785,-1.255 -2.812,-1.621l-0.187,-0.926c-0.189,-0.929 -1.013,-1.602 -1.96,-1.602h-1.74c-0.947,0 -1.771,0.673 -1.96,1.602l-0.188,0.926c-1.027,0.366 -1.983,0.916 -2.813,1.621l-0.892,-0.298c-0.9,-0.305 -1.895,0.075 -2.368,0.896l-0.87,1.507c-0.473,0.82 -0.302,1.871 0.408,2.499l0.708,0.626c-0.103,0.545 -0.155,1.088 -0.155,1.621c0,0.533 0.052,1.076 0.154,1.622l-0.708,0.625c-0.71,0.627 -0.881,1.678 -0.408,2.499l0.87,1.507c0.474,0.82 1.469,1.198 2.367,0.896l0.894,-0.299c0.83,0.705 1.785,1.255 2.812,1.621l0.188,0.926c0.19,0.93 1.014,1.603 1.961,1.603h1.74c0.947,0 1.771,-0.673 1.96,-1.602l0.188,-0.926c1.027,-0.366 1.983,-0.917 2.812,-1.621l0.893,0.298c0.898,0.303 1.894,-0.076 2.368,-0.896l0.87,-1.507c0.474,-0.82 0.303,-1.871 -0.407,-2.498zM12,15.5c-1.93,0 -3.5,-1.57 -3.5,-3.5c0,-1.93 1.57,-3.5 3.5,-3.5c1.93,0 3.5,1.57 3.5,3.5c0,1.93 -1.57,3.5 -3.5,3.5z"></path></g></g></svg>