<?xml version="1.0" encoding="UTF-8"?>
<!DOCTYPE svg PUBLIC "-//W3C//DTD SVG 1.1//EN" "http://www.w3.org/Graphics/SVG/1.1/DTD/svg11.dtd">
<svg xmlns="http://www.w3.org/2000/svg" version="1.1" width="96px" height="96px" style="shape-rendering:geometricPrecision; text-rendering:geometricPrecision; image-rendering:optimizeQuality; fill-rule:evenodd; clip-rule:evenodd" xmlns:xlink="http://www.w3.org/1999/xlink">
<g><path style="opacity:0.961" fill="#fefffe" d="M 37.5,3.5 C 44.175,3.33375 50.8417,3.50042 57.5,4C 61.5238,10.9018 59.5238,13.7351 51.5,12.5C 51.33,13.8221 51.6634,14.9887 52.5,16C 77.7221,22.5867 87.5555,38.7533 82,64.5C 72.0318,85.397 55.8651,92.5636 33.5,86C 13.6022,75.3545 7.10221,59.1878 14,37.5C 19.7258,25.4536 29.2258,18.2869 42.5,16C 43.3366,14.9887 43.67,13.8221 43.5,12.5C 35.8371,13.146 33.8371,10.146 37.5,3.5 Z M 46.5,32.5 C 48.3109,32.572 49.6443,33.4053 50.5,35C 51.93,41.5464 51.7634,48.0464 50,54.5C 48.3333,55.8333 46.6667,55.8333 45,54.5C 43.4725,48.5851 43.1392,42.5851 44,36.5C 44.4796,34.867 45.3129,33.5336 46.5,32.5 Z"/></g>
<g><path style="opacity:0.846" fill="#fefffe" d="M 76.5,15.5 C 78.5273,15.3379 80.5273,15.5045 82.5,16C 84,17.5 85.5,19 87,20.5C 88.8333,26.6667 86.6667,28.8333 80.5,27C 75.7495,24.2756 74.4161,20.4422 76.5,15.5 Z"/></g>
</svg>
